<?xml version="1.0" encoding="utf-8"?>
<!-- Generator: Adobe Illustrator 19.1.0, SVG Export Plug-In . SVG Version: 6.00 Build 0)  -->
<svg version="1.1" id="Layer_1" xmlns="http://www.w3.org/2000/svg" xmlns:xlink="http://www.w3.org/1999/xlink" x="0px" y="0px"
	 width="463px" height="138px" viewBox="-170 372 463 138" style="enable-background:new -170 372 463 138;" xml:space="preserve">
<style type="text/css">
	.st0{fill:#648F00;}
	.st1{fill:#FFFFFF;}
	.st2{fill:#121314;}
	.st3{fill:#84BD00;}
</style>
<g>
	<path class="st0" d="M100,397c0,13.8-11.2,25-25,25h-220c-13.8,0-25-11.2-25-25l0,0c0-13.8,11.2-25,25-25H75
		C88.8,372,100,383.2,100,397L100,397z"/>
	<g>
		<g>
			<g>
				<g>
					<path class="st1" d="M-129.1,385.1c-6.3,0-11.4,5.1-11.4,11.4s5.1,11.4,11.4,11.4c6.3,0,11.4-5.1,11.4-11.4
						C-117.8,390.2-122.9,385.1-129.1,385.1z M-123.9,401.5c-0.2,0.3-0.6,0.4-1,0.2c-2.7-1.6-6-2-10-1.1c-0.4,0.1-0.8-0.2-0.8-0.5
						c-0.1-0.4,0.2-0.8,0.5-0.8c4.3-1,8-0.6,11,1.3C-123.8,400.7-123.7,401.1-123.9,401.5z M-122.5,398.4c-0.3,0.4-0.8,0.5-1.2,0.3
						c-3.1-1.9-7.7-2.4-11.3-1.3c-0.5,0.1-1-0.1-1.1-0.6c-0.1-0.5,0.1-1,0.6-1.1c4.1-1.3,9.3-0.6,12.8,1.5
						C-122.4,397.4-122.3,398-122.5,398.4z M-122.4,395.2c-3.7-2.2-9.7-2.4-13.2-1.3c-0.6,0.2-1.2-0.1-1.3-0.7
						c-0.2-0.6,0.1-1.2,0.7-1.3c4-1.2,10.7-1,14.9,1.5c0.5,0.3,0.7,1,0.4,1.5C-121.3,395.3-121.9,395.5-122.4,395.2z"/>
				</g>
			</g>
		</g>
		<g>
			<path class="st1" d="M-106.8,402.6v-10.7h1.9v9h4.7v1.6h-6.6V402.6z"/>
			<path class="st1" d="M-98.7,397.3c0-3.2,2.3-5.5,5.5-5.5s5.5,2.3,5.5,5.5c0,3.2-2.3,5.5-5.5,5.5
				C-96.4,402.8-98.7,400.5-98.7,397.3z M-89.7,397.3c0-2.2-1.4-3.9-3.5-3.9c-2.2,0-3.5,1.6-3.5,3.9c0,2.2,1.4,3.9,3.5,3.9
				C-91.1,401.1-89.7,399.5-89.7,397.3z"/>
			<path class="st1" d="M-85.6,397.3c0-3.4,2.5-5.5,5.6-5.5c2.1,0,3.4,1,4.3,2.2l-1.5,0.9c-0.6-0.8-1.6-1.4-2.8-1.4
				c-2.1,0-3.7,1.6-3.7,3.9c0,2.2,1.6,3.9,3.7,3.9c1.1,0,2-0.5,2.5-1v-1.6h-3.2v-1.6h5.1v4c-1,1.2-2.5,2-4.4,2
				C-83.1,402.8-85.6,400.6-85.6,397.3z"/>
			<path class="st1" d="M-68,402.6v-10.7h1.9v10.7C-66.1,402.6-68,402.6-68,402.6z"/>
			<path class="st1" d="M-55.6,402.6l-5.6-7.6v7.6H-63v-10.7h1.9l5.5,7.4v-7.4h1.9v10.7C-53.7,402.6-55.6,402.6-55.6,402.6z"/>
			<path class="st1" d="M-37.6,402.6l-2.1-7.9l-2.1,7.9h-2l-3-10.7h2.1l2.1,8.2l2.2-8.2h1.5l2.2,8.2l2.1-8.2h2.1l-3.1,10.7
				C-35.6,402.6-37.6,402.6-37.6,402.6z"/>
			<path class="st1" d="M-30.5,402.6v-10.7h1.9v10.7C-28.6,402.6-30.5,402.6-30.5,402.6z"/>
			<path class="st1" d="M-23,402.6v-9h-3.2V392h8.3v1.6h-3.2v9H-23z"/>
			<path class="st1" d="M-8.1,402.6v-4.7h-5.6v4.7h-1.9v-10.7h1.9v4.4h5.6v-4.4h1.9v10.7C-6.2,402.6-8.1,402.6-8.1,402.6z"/>
			<path class="st1" d="M1,401.1l1.1-1.5c0.7,0.8,1.9,1.5,3.4,1.5s2.1-0.8,2.1-1.5c0-2.2-6.2-0.8-6.2-4.8c0-1.8,1.5-3.1,3.9-3.1
				c1.6,0,3,0.5,4,1.5l-1.1,1.4c-0.8-0.8-2-1.2-3.1-1.2s-1.8,0.5-1.8,1.3c0,2,6.2,0.8,6.2,4.7c0,1.8-1.3,3.3-4.1,3.3
				C3.4,402.8,2,402.1,1,401.1z"/>
			<path class="st1" d="M12,402.6v-10.7h4.7c2.2,0,3.5,1.5,3.5,3.3c0,1.8-1.2,3.3-3.5,3.3h-2.8v4H12V402.6z M18.3,395.3
				c0-1-0.8-1.7-1.8-1.7h-2.6v3.4h2.6C17.5,397,18.3,396.3,18.3,395.3z"/>
			<path class="st1" d="M22.1,397.3c0-3.2,2.3-5.5,5.5-5.5s5.5,2.3,5.5,5.5c0,3.2-2.3,5.5-5.5,5.5C24.4,402.8,22.1,400.5,22.1,397.3
				z M31.1,397.3c0-2.2-1.4-3.9-3.5-3.9c-2.2,0-3.5,1.6-3.5,3.9c0,2.2,1.4,3.9,3.5,3.9C29.7,401.1,31.1,399.5,31.1,397.3z"/>
			<path class="st1" d="M37.8,402.6v-9h-3.2V392h8.3v1.6h-3.2v9H37.8z"/>
			<path class="st1" d="M45.3,402.6v-10.7h1.9v10.7C47.2,402.6,45.3,402.6,45.3,402.6z"/>
			<path class="st1" d="M50.2,402.6v-10.7h7.3v1.6h-5.4v2.8h5.3v1.7h-5.3v4.6H50.2z"/>
			<path class="st1" d="M63.1,402.6v-4.4L59,392h2.1l2.9,4.6l2.9-4.6H69l-4.1,6.2v4.4H63.1z"/>
		</g>
	</g>
</g>
<g>
	<path class="st2" d="M293,466c0,24.3-19.7,44-44,44h-375c-24.3,0-44-19.7-44-44l0,0c0-24.3,19.7-44,44-44h375
		C273.3,422,293,441.7,293,466L293,466z"/>
	<g>
		<g>
			<g>
				<g>
					<path class="st3" d="M-60,444.2c-12.2,0-22,9.8-22,22c0,12.2,9.8,22,22,22s22-9.8,22-22C-38,454.1-47.8,444.2-60,444.2z
						 M-49.9,476c-0.4,0.6-1.2,0.9-1.9,0.5c-5.2-3.2-11.7-3.9-19.3-2.1c-0.7,0.2-1.5-0.3-1.6-1c-0.2-0.7,0.3-1.5,1-1.6
						c8.4-1.9,15.6-1.1,21.4,2.5C-49.7,474.5-49.5,475.3-49.9,476z M-47.2,470c-0.5,0.8-1.6,1.1-2.4,0.6c-5.9-3.6-14.9-4.7-21.9-2.6
						c-0.9,0.3-1.9-0.2-2.1-1.1c-0.3-0.9,0.2-1.9,1.1-2.1c8-2.4,17.9-1.3,24.7,2.9C-47,468.1-46.7,469.2-47.2,470z M-47,463.7
						c-7.1-4.2-18.8-4.6-25.6-2.5c-1.1,0.3-2.2-0.3-2.6-1.4c-0.3-1.1,0.3-2.2,1.4-2.6c7.8-2.4,20.7-1.9,28.9,2.9
						c1,0.6,1.3,1.8,0.7,2.8C-44.7,464-46,464.3-47,463.7z"/>
				</g>
			</g>
		</g>
		<g>
			<path class="st1" d="M-16,477.1v-20h3.5V474h8.8v3.1H-16z"/>
			<path class="st1" d="M-1,458.9c0-1.1,0.9-2,2-2s2,0.9,2,2s-0.9,1.9-2,1.9S-1,459.9-1,458.9z M-0.7,477.1v-14.5h3.1v14.5H-0.7z"/>
			<path class="st1" d="M5.3,475.2l1.4-2.2c1,1,3,2,4.9,2s2.9-0.8,2.9-1.9c0-2.8-8.8-0.8-8.8-6.4c0-2.4,2-4.4,5.7-4.4
				c2.5,0,4.3,0.9,5.6,2l-1.3,2.2c-0.9-1-2.5-1.7-4.3-1.7c-1.7,0-2.7,0.8-2.7,1.8c0,2.5,8.8,0.6,8.8,6.4c0,2.6-2.1,4.5-6,4.5
				C9,477.4,6.8,476.6,5.3,475.2z"/>
			<path class="st1" d="M21.4,473.7v-8.4H19v-2.7h2.4v-4h3.1v4h2.9v2.7h-2.9v7.6c0,1,0.5,1.7,1.4,1.7c0.6,0,1.1-0.3,1.4-0.5l0.7,2.4
				c-0.6,0.5-1.5,0.9-2.9,0.9C22.6,477.4,21.4,476.1,21.4,473.7z"/>
			<path class="st1" d="M29.4,469.8c0-4.2,3.1-7.6,7.3-7.6c4.3,0,7.1,3.3,7.1,7.9v0.8H32.6c0.2,2.2,1.9,4,4.6,4
				c1.4,0,3.1-0.6,4.1-1.6l1.4,2.1c-1.5,1.4-3.6,2.1-5.9,2.1C32.6,477.4,29.4,474.4,29.4,469.8z M36.7,464.8c-2.7,0-3.9,2.1-4.1,3.8
				h8.2C40.8,466.9,39.6,464.8,36.7,464.8z"/>
			<path class="st1" d="M56.8,477.1V468c0-2.3-1.2-3-2.9-3c-1.6,0-3,1-3.7,1.9V477H47v-14.4h3.2v2c1-1.1,2.8-2.3,5.1-2.3
				c3.1,0,4.7,1.7,4.7,4.7v10.2h-3.2V477.1z"/>
			<path class="st1" d="M70.9,469.8c0-4.2,2.8-7.6,7.4-7.6c4.6,0,7.4,3.4,7.4,7.6c0,4.1-2.8,7.6-7.4,7.6S70.9,474,70.9,469.8z
				 M82.5,469.8c0-2.5-1.5-4.8-4.2-4.8s-4.2,2.2-4.2,4.8c0,2.6,1.5,4.8,4.2,4.8S82.5,472.4,82.5,469.8z"/>
			<path class="st1" d="M98.8,477.1V468c0-2.3-1.2-3-2.9-3c-1.6,0-3,1-3.7,1.9V477H89v-14.4h3.1v2c1-1.1,2.8-2.3,5.1-2.3
				c3.1,0,4.7,1.7,4.7,4.7v10.2h-3.1V477.1z"/>
			<path class="st1" d="M112.6,474.3l2-2.7c1.4,1.5,3.5,2.8,6.3,2.8c2.9,0,4-1.4,4-2.8c0-4.2-11.6-1.6-11.6-8.9
				c0-3.3,2.9-5.9,7.3-5.9c3.1,0,5.6,1,7.5,2.8l-2,2.6c-1.6-1.6-3.7-2.3-5.8-2.3c-2,0-3.4,1-3.4,2.5c0,3.8,11.6,1.4,11.6,8.9
				c0,3.3-2.4,6.2-7.7,6.2C117,477.4,114.4,476.1,112.6,474.3z"/>
			<path class="st1" d="M134.7,475.1v7.5h-3.1v-20h3.1v2c1.1-1.4,2.8-2.3,4.7-2.3c3.8,0,6.4,2.8,6.4,7.6s-2.7,7.6-6.4,7.6
				C137.6,477.4,135.9,476.6,134.7,475.1z M142.6,469.8c0-2.8-1.6-4.8-4.1-4.8c-1.5,0-3,0.8-3.7,1.9v5.7c0.7,1.1,2.2,2,3.7,2
				C141,474.6,142.6,472.6,142.6,469.8z"/>
			<path class="st1" d="M148.1,469.8c0-4.2,2.8-7.6,7.4-7.6s7.4,3.4,7.4,7.6c0,4.1-2.8,7.6-7.4,7.6S148.1,474,148.1,469.8z
				 M159.7,469.8c0-2.5-1.5-4.8-4.2-4.8s-4.2,2.2-4.2,4.8c0,2.6,1.5,4.8,4.2,4.8S159.7,472.4,159.7,469.8z"/>
			<path class="st1" d="M166.8,473.7v-8.4h-2.4v-2.7h2.4v-4h3.2v4h2.9v2.7H170v7.6c0,1,0.5,1.7,1.4,1.7c0.6,0,1.1-0.3,1.4-0.5
				l0.8,2.4c-0.6,0.5-1.5,0.9-2.9,0.9C168.1,477.4,166.8,476.1,166.8,473.7z"/>
			<path class="st1" d="M175.4,458.9c0-1.1,0.9-2,2-2s1.9,0.9,1.9,2s-0.9,1.9-1.9,1.9S175.4,459.9,175.4,458.9z M175.8,477.1v-14.5
				h3.2v14.5H175.8z"/>
			<path class="st1" d="M183.8,477.1v-11.8h-2.4v-2.7h2.4v-0.8c0-3.1,1.8-5,4.6-5c1.3,0,2.6,0.3,3.5,1.3l-1.2,1.9
				c-0.4-0.4-1-0.6-1.6-0.6c-1.3,0-2,0.8-2,2.4v0.8h2.9v2.7h-2.9v11.8C187.1,477.1,183.8,477.1,183.8,477.1z"/>
			<path class="st1" d="M192.1,479.9c0.3,0.2,0.8,0.2,1.2,0.2c1,0,1.7-0.3,2.1-1.3l0.7-1.7l-6-14.7h3.4l4.2,10.9l4.2-10.9h3.4
				l-7,17.1c-1,2.5-2.7,3.2-4.9,3.3c-0.5,0-1.3-0.1-1.8-0.2L192.1,479.9z"/>
		</g>
	</g>
</g>
</svg>
